<mxfile host="app.diagrams.net" modified="2024-07-09T14:33:09.972Z" agent="Mozilla/5.0 (X11; Linux x86_64) AppleWebKit/537.36 (KHTML, like Gecko) Chrome/126.0.0.0 Safari/537.36" etag="GZoH1r9vBRzo-i_lufW-" version="24.6.4" type="device">
  <diagram name="PÃ¡gina-1" id="tzxYPzrsjsdy0AMQlljh">
    <mxGraphModel dx="1114" dy="579" grid="1" gridSize="10" guides="1" tooltips="1" connect="1" arrows="1" fold="1" page="1" pageScale="1" pageWidth="827" pageHeight="1169" math="0" shadow="0">
      <root>
        <mxCell id="0" />
        <mxCell id="1" parent="0" />
      </root>
    </mxGraphModel>
  </diagram>
</mxfile>
